<svg xmlns="http://www.w3.org/2000/svg" width="58" height="56" viewBox="0 0 58 56">
  <g id="_038-cottage" data-name="038-cottage" transform="translate(-3 -3)">
    <path id="Path_50" data-name="Path 50" d="M60,49H58.444a3.92,3.92,0,0,0-.826-5,3.947,3.947,0,0,0,0-6,3.947,3.947,0,0,0,0-6,3.947,3.947,0,0,0,0-6,3.933,3.933,0,0,0,.776-5.091.99.99,0,0,0,.568-.637,1,1,0,0,0-.438-1.124l-26-16a1,1,0,0,0-1.048,0l-26,16a1,1,0,0,0-.438,1.124.99.99,0,0,0,.568.637A3.933,3.933,0,0,0,6.382,26a3.947,3.947,0,0,0,0,6,3.947,3.947,0,0,0,0,6,3.947,3.947,0,0,0,0,6,3.92,3.92,0,0,0-.826,5H4a1,1,0,0,0-1,1v8a1,1,0,0,0,1,1H60a1,1,0,0,0,1-1V50A1,1,0,0,0,60,49Zm-3-2a2,2,0,1,1-2-2A2,2,0,0,1,57,47ZM43,55v2H21V55ZM23,53V51H41v2ZM51.556,27a3.875,3.875,0,0,0,0,4H12.444a3.875,3.875,0,0,0,0-4ZM12.444,25a3.875,3.875,0,0,0,0-4H51.556a3.875,3.875,0,0,0,0,4ZM33,49V33h8V49ZM23,33h8V49H23Zm20,6h8.556a3.875,3.875,0,0,0,0,4H43Zm0-2V33h8.556a3.875,3.875,0,0,0,0,4ZM21,33v4H12.444a3.875,3.875,0,0,0,0-4Zm0,6v4H12.444a3.875,3.875,0,0,0,0-4Zm0,6v4H12.444a3.875,3.875,0,0,0,0-4Zm22,0h8.556a3.875,3.875,0,0,0,0,4H43Zm14-4a2,2,0,1,1-2-2A2,2,0,0,1,57,41Zm0-6a2,2,0,1,1-2-2A2,2,0,0,1,57,35Zm0-6a2,2,0,1,1-2-2A2,2,0,0,1,57,29Zm-4-6a2,2,0,1,1,2,2A2,2,0,0,1,53,23ZM32,5.174,54.467,19H9.533ZM7,23a2,2,0,1,1,2,2A2,2,0,0,1,7,23Zm0,6a2,2,0,1,1,2,2A2,2,0,0,1,7,29Zm0,6a2,2,0,1,1,2,2A2,2,0,0,1,7,35Zm0,6a2,2,0,1,1,2,2A2,2,0,0,1,7,41Zm0,6a2,2,0,1,1,2,2A2,2,0,0,1,7,47ZM5,51H21v2H20a1,1,0,0,0-1,1v3H5Zm54,6H45V54a1,1,0,0,0-1-1H43V51H59Z" fill="#fff"/>
    <path id="Path_51" data-name="Path 51" d="M32,8a5,5,0,1,0,5,5A5,5,0,0,0,32,8Zm0,8a3,3,0,1,1,3-3A3,3,0,0,1,32,16Z" fill="#fff"/>
  </g>
</svg>
