<svg id="Group_22" data-name="Group 22" xmlns="http://www.w3.org/2000/svg" width="24" height="24" viewBox="0 0 24 24">
  <g id="Group_19" data-name="Group 19">
    <g id="Group_18" data-name="Group 18">
      <path id="Path_116" data-name="Path 116" d="M16.5,0h-9A7.5,7.5,0,0,0,0,7.5v9A7.5,7.5,0,0,0,7.5,24h9A7.5,7.5,0,0,0,24,16.5v-9A7.5,7.5,0,0,0,16.5,0ZM12,18a6,6,0,1,1,6-6A6,6,0,0,1,12,18ZM18.45,6.35a.8.8,0,1,1,.8-.8A.8.8,0,0,1,18.45,6.35Z" fill="#8686a3"/>
    </g>
  </g>
  <g id="Group_21" data-name="Group 21" transform="translate(8.471 8.47)">
    <g id="Group_20" data-name="Group 20" transform="translate(0 0)">
      <circle id="Ellipse_1" data-name="Ellipse 1" cx="4" cy="4" r="4" transform="translate(-0.471 -0.471)" fill="#8686a3"/>
    </g>
  </g>
</svg>
