<svg xmlns="http://www.w3.org/2000/svg" width="178" height="105.317" viewBox="0 0 178 105.317">
  <g id="Group_9" data-name="Group 9" transform="translate(-1786.61 -274.822)">
    <g id="Group_6" data-name="Group 6" transform="translate(1807.528 371.827)">
      <path id="Path_88" data-name="Path 88" d="M1838.57,526.845V520.7h3.4a2.394,2.394,0,0,1,1.843.668,1.835,1.835,0,0,1,.508,1.269,1.882,1.882,0,0,1-1.241,1.73l1.438,2.473h-1.542l-1.241-2.257h-1.825v2.257Zm1.345-5v1.608h2.2a.82.82,0,0,0,.856-.808.746.746,0,0,0-.217-.536.917.917,0,0,0-.733-.264Z" transform="translate(-1838.57 -518.72)" fill="#fff"/>
      <path id="Path_89" data-name="Path 89" d="M1862.746,524.221h-2.266v1.466h3.987v1.157h-5.332V520.7h5.116v1.166h-3.771v1.194h2.266Z" transform="translate(-1850.856 -518.72)" fill="#fff"/>
      <path id="Path_90" data-name="Path 90" d="M1878.813,520.7h1.156l2.849,6.141h-1.476l-.564-1.3h-2.84l-.554,1.3h-1.42Zm-.414,3.78h1.919l-.931-2.172h-.057Z" transform="translate(-1860.909 -518.72)" fill="#fff"/>
      <path id="Path_91" data-name="Path 91" d="M1899.369,520.7v4.984h3.611v1.157h-4.955V520.7Z" transform="translate(-1874.089 -518.72)" fill="#fff"/>
      <path id="Path_92" data-name="Path 92" d="M1915.527,526.845V520.7h1.344v6.141Z" transform="translate(-1884.545 -518.72)" fill="#fff"/>
      <path id="Path_93" data-name="Path 93" d="M1924.221,520.7h5.793v1.166h-2.219v4.974h-1.345V521.87h-2.229Z" transform="translate(-1889.739 -518.72)" fill="#fff"/>
      <path id="Path_94" data-name="Path 94" d="M1949.621,520.7v6.141h-1.166l-3.122-3.8h-.01v3.8h-1.354V520.7h1.157l3.131,3.808h.009V520.7Z" transform="translate(-1901.537 -518.72)" fill="#fff"/>
      <path id="Path_95" data-name="Path 95" d="M1965.889,517.76h1.156l2.849,6.141h-1.476l-.564-1.3h-2.84l-.554,1.3h-1.42Zm-.414,3.78h1.919l-.931-2.172h-.057Zm1.109-5.764h1.345l-1.166,1.3h-1.119Z" transform="translate(-1912.929 -515.777)" fill="#fff"/>
      <path id="Path_96" data-name="Path 96" d="M1994.049,523.375l2.812-2.671h1.692L1996,523.1l3.018,3.742h-1.7l-2.275-2.859-.988.931v1.928H1992.7V520.7h1.354Z" transform="translate(-1930.647 -518.72)" fill="#fff"/>
      <path id="Path_97" data-name="Path 97" d="M2013.8,520.7h1.156l2.849,6.141h-1.476l-.564-1.3h-2.84l-.554,1.3h-1.42Zm-.414,3.78h1.919l-.931-2.172h-.056Z" transform="translate(-1941.551 -518.72)" fill="#fff"/>
      <path id="Path_98" data-name="Path 98" d="M2038.658,520.7v6.141h-1.166l-3.122-3.8h-.01v3.8h-1.354V520.7h1.157l3.13,3.808h.009V520.7Z" transform="translate(-1954.73 -518.72)" fill="#fff"/>
      <path id="Path_99" data-name="Path 99" d="M2059.426,525.495a4.58,4.58,0,0,1-3.122,1.26,3.26,3.26,0,1,1-.047-6.517,4.708,4.708,0,0,1,2.972,1.072l-.846.884a3.273,3.273,0,0,0-2.012-.789,2.1,2.1,0,0,0,.047,4.193,3.161,3.161,0,0,0,2.154-.977Z" transform="translate(-1966.625 -518.442)" fill="#fff"/>
      <path id="Path_100" data-name="Path 100" d="M2078.054,524.221h-2.267v1.466h3.987v1.157h-5.331V520.7h5.115v1.166h-3.771v1.194h2.267Z" transform="translate(-1979.484 -518.72)" fill="#fff"/>
      <path id="Path_101" data-name="Path 101" d="M2094.739,520.7v4.984h3.611v1.157H2093.4V520.7Z" transform="translate(-1990.806 -518.72)" fill="#fff"/>
      <path id="Path_102" data-name="Path 102" d="M2111.623,517.76h1.156l2.849,6.141h-1.476l-.564-1.3h-2.84l-.554,1.3h-1.42Zm-.414,3.78h1.919l-.931-2.172h-.057Zm1.11-5.764h1.345l-1.166,1.3h-1.119Z" transform="translate(-1999.993 -515.777)" fill="#fff"/>
      <path id="Path_103" data-name="Path 103" d="M2130.833,526.845V520.7h3.4a2.394,2.394,0,0,1,1.843.668,1.834,1.834,0,0,1,.508,1.269,1.882,1.882,0,0,1-1.241,1.73l1.439,2.473h-1.542L2134,524.588h-1.825v2.257Zm1.344-5v1.608h2.2a.82.82,0,0,0,.856-.808.746.746,0,0,0-.217-.536.917.917,0,0,0-.733-.264Z" transform="translate(-2013.172 -518.72)" fill="#fff"/>
      <path id="Path_104" data-name="Path 104" d="M2151.4,526.845V520.7h1.345v6.141Z" transform="translate(-2025.459 -518.72)" fill="#fff"/>
      <path id="Path_105" data-name="Path 105" d="M2162.615,520.7h1.156l2.849,6.141h-1.476l-.564-1.3h-2.84l-.554,1.3h-1.42Zm-.414,3.78h1.919l-.931-2.172h-.057Z" transform="translate(-2030.457 -518.72)" fill="#fff"/>
    </g>
    <g id="Group_7" data-name="Group 7" transform="translate(1834.245 274.822)">
      <path id="Path_106" data-name="Path 106" d="M1985.654,289.908a24.924,24.924,0,0,0-3.736-2.74,15.962,15.962,0,0,0-26.833-7.671l-20.114,20.114a12.464,12.464,0,0,1-17.506,0l-.079-.079a12.215,12.215,0,0,1-2.207-3.023,24.483,24.483,0,0,0,7.429,1.366c.238.009.475.013.714.013a24.706,24.706,0,0,0,19.761-9.879c.308-.414.617-.841.9-1.278l.3-.454L1937.5,279.5a15.951,15.951,0,0,0-27.212,10.381,21.164,21.164,0,0,1-4.032-4.146l-.868-1.132-.317,1.41a5.857,5.857,0,0,0,1.864,5.658,25.028,25.028,0,0,0,3.745,2.741,15.885,15.885,0,0,0,4.212,7.623l.088.084a16,16,0,0,0,22.476,0l20.118-20.118a12.456,12.456,0,0,1,19.836,3.062,24.439,24.439,0,0,0-7.433-1.366q-.358-.013-.714-.013a24.685,24.685,0,0,0-19.66,9.746c-.335.436-.674.912-1.009,1.41l-.3.454,6.786,6.785a15.829,15.829,0,0,0,11.284,4.675c.1,0,.207,0,.313,0A15.962,15.962,0,0,0,1982.3,291.7a21.142,21.142,0,0,1,4.041,4.16l.868,1.141.317-1.419A5.883,5.883,0,0,0,1985.654,289.908Zm-71.789,2.23a12.425,12.425,0,0,1,21.141-10.147l4.662,4.662a21.443,21.443,0,0,1-3.6,3.441,21.009,21.009,0,0,1-12.751,4.274,21.341,21.341,0,0,1-3.194-.242A20.983,20.983,0,0,1,1913.865,292.138Zm55.4-4.939a21.3,21.3,0,0,1,3.194.242,20.925,20.925,0,0,1,6.27,1.992,12.482,12.482,0,0,1,.075,1.348,12.434,12.434,0,0,1-21.229,8.795l-4.662-4.662a21.311,21.311,0,0,1,3.6-3.441A21,21,0,0,1,1969.263,287.2Z" transform="translate(-1904.932 -274.822)" fill="#8686a3"/>
    </g>
    <g id="Group_8" data-name="Group 8" transform="translate(1786.61 328.621)">
      <path id="Path_107" data-name="Path 107" d="M1811.118,415.556a16.8,16.8,0,0,0-11.086-3.711c-3.848,0-7.788,1.374-7.788,5.131,0,3.848,4.948,4.031,9.8,4.306,5.222.366,13.65.87,13.65,8.887,0,6.964-6.184,9.757-13.376,9.757a22.236,22.236,0,0,1-15.713-6.138l2.428-2.748a18.909,18.909,0,0,0,13.376,5.5c5.085,0,9.3-1.832,9.3-5.863,0-4.489-4.581-5.176-9.666-5.543-6.459-.412-13.789-.87-13.789-7.788,0-6.825,6.551-8.887,11.91-8.887a21.874,21.874,0,0,1,13.331,4.352Z" transform="translate(-1786.61 -408.456)" fill="#fff"/>
      <path id="Path_108" data-name="Path 108" d="M1897.089,440.3V410.39h3.985V440.3Z" transform="translate(-1852.612 -409.611)" fill="#fff"/>
      <path id="Path_109" data-name="Path 109" d="M1968.8,426.332H1956.71v10.445h21.118V440.3h-25.1V410.39h24.05v3.527H1956.71V422.8H1968.8Z" transform="translate(-1885.85 -409.611)" fill="#fff"/>
      <path id="Path_110" data-name="Path 110" d="M2052.507,440.3V410.39H2069c3.848,0,6.505,1.053,8.383,3.023a8.4,8.4,0,0,1,2.29,5.864c0,4.031-2.748,7.192-6.963,8.337l7.375,12.689h-4.535l-6.871-12.185h-12.186V440.3Zm3.985-26.386V424.59h13.514a5.485,5.485,0,0,0,5.726-5.36,5.078,5.078,0,0,0-1.42-3.481,6.959,6.959,0,0,0-5.314-1.833Z" transform="translate(-1945.461 -409.611)" fill="#fff"/>
      <path id="Path_111" data-name="Path 111" d="M2150.467,440.3l13.88-29.913h3.757l13.88,29.913h-4.352l-4.077-8.979h-14.934l-4.031,8.979Zm9.574-12.185h12.093l-5.909-13.056h-.275Z" transform="translate(-2003.984 -409.611)" fill="#fff"/>
    </g>
  </g>
</svg>
