<?xml version="1.0" encoding="utf-8"?>
<!-- Generator: Adobe Illustrator 24.3.0, SVG Export Plug-In . SVG Version: 6.00 Build 0)  -->
<svg version="1.1" id="Layer_1" xmlns="http://www.w3.org/2000/svg" x="0px" y="0px"
     viewBox="0 0 62 62" style="enable-background:new 0 0 62 62;" xml:space="preserve">
<style type="text/css">
	.st0{fill:#8686A3;}
	.st1{fill:#0A2740;}
</style>
<g id="_001-business_report" transform="translate(-1 -1)">
	<g id="Group_5">
		<path id="Path_78" class="st0" d="M38.5,48.8c0.2-1.1-0.5-2.3-1.6-2.5v4.6C37.8,50.5,38.4,49.7,38.5,48.8z"/>
		<path id="Path_79" class="st0" d="M54.5,48.8c0.2-1.1-0.5-2.3-1.6-2.5v4.6C53.8,50.5,54.4,49.7,54.5,48.8z"/>
		<path id="Path_80" class="st0" d="M49.8,41.4c-0.1,0.5,0,1.1,0.4,1.4c0.2,0.2,0.4,0.3,0.7,0.4V40C50.4,40.3,50,40.8,49.8,41.4
			L49.8,41.4z"/>
		<path id="Path_81" class="st0" d="M60,13H28c-1.7,0-3,1.3-3,3v44c0,1.7,1.3,3,3,3h32c1.7,0,3-1.3,3-3V16C63,14.3,61.7,13,60,13z
			 M40,59h-8c-0.6,0-1-0.4-1-1s0.4-1,1-1h8c0.6,0,1,0.4,1,1S40.6,59,40,59z M33,44.4c-1-0.8-1.4-2.1-1.1-3.4c0.3-1.6,1.5-2.8,3-3.1
			V37c0-0.6,0.4-1,1-1s1,0.4,1,1v0.9c0.9,0.1,1.7,0.5,2.4,1.1c0.4,0.4,0.4,1,0,1.4c-0.4,0.4-1,0.4-1.4,0.1c-0.3-0.2-0.7-0.4-1-0.5
			v4.3c0.3,0.1,0.5,0.2,0.8,0.3c2,0.6,3.2,2.6,2.8,4.7c-0.3,1.9-1.7,3.4-3.6,3.8v1c0,0.6-0.4,1-1,1s-1-0.4-1-1v-1
			c-1.1-0.1-2.2-0.4-3-1.1c-0.5-0.3-0.6-0.9-0.3-1.4c0.3-0.5,0.9-0.6,1.4-0.3l0,0c0.6,0.4,1.2,0.7,1.9,0.8v-5.5
			C34.2,45.2,33.6,44.9,33,44.4z M40,34h-8c-0.6,0-1-0.4-1-1s0.4-1,1-1h8c0.6,0,1,0.4,1,1S40.6,34,40,34z M38.3,25.3
			c0.4-0.4,1-0.4,1.4,0c0.4,0.4,0.4,1,0,1.4c0,0,0,0,0,0l-3,3c-0.4,0.4-1,0.4-1.4,0l-3-3c-0.4-0.4-0.4-1,0-1.4c0.4-0.4,1-0.4,1.4,0
			c0,0,0,0,0,0l1.3,1.3V22c0-0.6,0.4-1,1-1s1,0.4,1,1v4.6L38.3,25.3z M56,59h-8c-0.6,0-1-0.4-1-1s0.4-1,1-1h8c0.6,0,1,0.4,1,1
			S56.6,59,56,59z M49,44.4c-1-0.8-1.4-2.1-1.1-3.4c0.3-1.6,1.5-2.8,3-3.1V37c0-0.6,0.4-1,1-1s1,0.4,1,1v0.9
			c0.9,0.1,1.7,0.5,2.4,1.1c0.4,0.4,0.4,1,0,1.4c-0.4,0.4-1,0.4-1.4,0.1c-0.3-0.2-0.7-0.4-1-0.5v4.3c0.3,0.1,0.5,0.2,0.8,0.3
			c2,0.6,3.2,2.6,2.8,4.7c-0.3,1.9-1.7,3.4-3.6,3.8v1c0,0.6-0.4,1-1,1s-1-0.4-1-1v-1c-1.1-0.1-2.2-0.4-3-1.1
			c-0.5-0.3-0.6-0.9-0.3-1.4c0.3-0.5,0.9-0.6,1.4-0.3l0,0c0.6,0.4,1.2,0.7,1.9,0.7v-5.5C50.2,45.2,49.6,44.9,49,44.4z M56,34h-8
			c-0.6,0-1-0.4-1-1s0.4-1,1-1h8c0.6,0,1,0.4,1,1S56.6,34,56,34z M49.7,25.7c-0.4,0.4-1,0.4-1.4,0c-0.4-0.4-0.4-1,0-1.4c0,0,0,0,0,0
			l3-3c0.4-0.4,1-0.4,1.4,0l3,3c0.4,0.4,0.4,1,0,1.4c-0.4,0.4-1,0.4-1.4,0c0,0,0,0,0,0L53,24.4V29c0,0.6-0.4,1-1,1s-1-0.4-1-1v-4.6
			L49.7,25.7z M58,19H30c-0.6,0-1-0.4-1-1s0.4-1,1-1h28c0.6,0,1,0.4,1,1S58.6,19,58,19z"/>
		<path id="Path_82" class="st0" d="M33.8,41.4c-0.1,0.5,0,1.1,0.4,1.4c0.2,0.2,0.4,0.3,0.7,0.4V40C34.4,40.3,34,40.8,33.8,41.4
			L33.8,41.4z"/>
	</g>
	<path id="Path_83" class="st1" d="M43,1H7C3.7,1,1,3.7,1,7v41c0,1.7,1.3,3,3,3h34c1.7,0,3-1.3,3-3V11h5c1.7,0,3-1.3,3-3V7
		C49,3.7,46.3,1,43,1z M39,48c0,0.6-0.4,1-1,1H4c-0.6,0-1-0.4-1-1V7c0-2.2,1.8-4,4-4s4,1.8,4,4v1c0,1.7,1.3,3,3,3h25V48z M47,8
		c0,0.6-0.4,1-1,1H14c-0.6,0-1-0.4-1-1V7c0-1.5-0.5-2.9-1.5-4H43c2.2,0,4,1.8,4,4V8z"/>
	<path id="Path_84" class="st1" d="M8,15v11c0,0.6,0.4,1,1,1h9c0.6,0,1-0.4,1-1V15c0-0.6-0.4-1-1-1H9C8.4,14,8,14.4,8,15z M10,16h7
		v9h-7V16z"/>
	<path id="Path_85" class="st1" d="M23,19h10c0.6,0,1-0.4,1-1s-0.4-1-1-1H23c-0.6,0-1,0.4-1,1S22.4,19,23,19z"/>
	<path id="Path_86" class="st1" d="M23,24h10c0.6,0,1-0.4,1-1s-0.4-1-1-1H23c-0.6,0-1,0.4-1,1S22.4,24,23,24z"/>
	<path id="Path_87" class="st1" d="M18.3,34.3L10,42.6V31c0-0.6-0.4-1-1-1s-1,0.4-1,1v14c0,0.6,0.4,1,1,1h24c0.6,0,1-0.4,1-1
		s-0.4-1-1-1H11.4l7.6-7.6l4.3,4.3c0.4,0.4,1,0.4,1.4,0l9-9c0.4-0.4,0.4-1,0-1.4c-0.4-0.4-1-0.4-1.4,0c0,0,0,0,0,0L24,38.6l-4.3-4.3
		C19.3,33.9,18.7,33.9,18.3,34.3z"/>
</g>
</svg>
