<svg xmlns="http://www.w3.org/2000/svg" width="24" height="16.5" viewBox="0 0 24 16.5">
  <g id="_002-youtube" data-name="002-youtube" transform="translate(0 -80)">
    <g id="Group_16" data-name="Group 16" transform="translate(0 80)">
      <path id="Path_114" data-name="Path 114" d="M22.98,81.59c-.651-1.158-1.358-1.371-2.8-1.452C18.747,80.04,15.133,80,12,80s-6.751.04-8.187.136-2.144.294-2.8,1.453S0,84.738,0,88.245v.012c0,3.492.345,5.5,1.015,6.644s1.363,1.368,2.8,1.466S8.866,96.5,12,96.5s6.744-.049,8.182-.132,2.145-.308,2.8-1.465C23.658,93.758,24,91.751,24,88.259v-.012C24,84.738,23.658,82.746,22.98,81.59ZM9,92.75v-9l7.5,4.5Z" transform="translate(0 -80)" fill="#8686a3"/>
    </g>
  </g>
</svg>
