<svg xmlns="http://www.w3.org/2000/svg" width="58" height="58" viewBox="0 0 58 58">
  <g id="_043-house" data-name="043-house" transform="translate(-3 -3)">
    <path id="Path_64" data-name="Path 64" d="M41,27h8a1,1,0,0,0,1-1V22a1,1,0,0,0-1-1H41a1,1,0,0,0-1,1v4A1,1,0,0,0,41,27Zm7-2H46V23h2Zm-6-2h2v2H42Z" fill="#fff"/>
    <path id="Path_65" data-name="Path 65" d="M41,40h8a1,1,0,0,0,1-1V31a1,1,0,0,0-1-1H41a1,1,0,0,0-1,1v8A1,1,0,0,0,41,40Zm1-4h2v2H42Zm6,2H46V36h2Zm0-4H46V32h2Zm-6-2h2v2H42Z" fill="#fff"/>
    <path id="Path_66" data-name="Path 66" d="M60.447,17.1l-28-14A1,1,0,0,0,31,4V18.382L3.553,32.1A1,1,0,0,0,3,33v5a1,1,0,0,0,1.447.894L5,38.618V60a1,1,0,0,0,1,1H58a1,1,0,0,0,1-1V23.618l.553.276A1,1,0,0,0,61,23V18A1,1,0,0,0,60.447,17.1ZM5,33.618l26-13v2.764l-26,13Zm2,4,24-12V59H29V40a1,1,0,0,0-1-1H10a1,1,0,0,0-1,1V59H7ZM27,47H11V45H27ZM11,49H27v2H11Zm16-6H11V41H27ZM11,53H27v2H11Zm0,6V57H27v2Zm37,0H42V45h6Zm9,0H50V44a1,1,0,0,0-1-1H41a1,1,0,0,0-1,1V59H33V10.618l24,12Zm2-37.618-26-13V5.618l26,13Z" fill="#fff"/>
  </g>
</svg>
