<svg xmlns="http://www.w3.org/2000/svg" width="59" height="62" viewBox="0 0 59 62">
  <g id="_006-manager" data-name="006-manager" transform="translate(-2.5 -1)">
    <path id="Path_76" data-name="Path 76" d="M59.793,30.707A1,1,0,0,0,61.5,30V16a3,3,0,0,0-3-3h-14a1,1,0,0,0-.707,1.707l4.465,4.465L36.5,30.929,24.742,19.172l4.465-4.465A1,1,0,0,0,28.5,13h-14a3,3,0,0,0-3,3V30a1,1,0,0,0,1.707.707l4.465-4.465L29.43,38,17.672,49.758l-4.465-4.465A1,1,0,0,0,11.5,46V60a3,3,0,0,0,3,3h14a1,1,0,0,0,.707-1.707l-4.465-4.465L36.5,45.071,48.258,56.828l-4.465,4.465A1,1,0,0,0,44.5,63h14a3,3,0,0,0,3-3V46a1,1,0,0,0-1.707-.707l-4.465,4.465L43.57,38,55.328,26.242Z" fill="#8686a3"/>
    <path id="Path_77" data-name="Path 77" d="M34.407,29.3l-4.922-3.37A11.962,11.962,0,0,0,33.5,17V13a12,12,0,1,0-24,0v4a11.962,11.962,0,0,0,4.015,8.933L8.593,29.3A13.99,13.99,0,0,0,2.5,40.855V47a3,3,0,0,0,3,3h32a3,3,0,0,0,3-3V40.855A13.99,13.99,0,0,0,34.407,29.3ZM21.5,3a10.012,10.012,0,0,1,9.171,6.025,26.029,26.029,0,0,0-9.527,2.04A24.2,24.2,0,0,1,11.5,12.994,10.011,10.011,0,0,1,21.5,3Zm-10,14V14.994a26.236,26.236,0,0,0,10.356-2.059A24.123,24.123,0,0,1,31.3,11.008,10.058,10.058,0,0,1,31.5,13v4a10,10,0,0,1-20,0ZM22.607,28.944l2.549,10.744L21.5,43.343l-3.656-3.655,2.549-10.744c.365.033.733.056,1.107.056S22.242,28.977,22.607,28.944ZM38.5,47a1,1,0,0,1-1,1h-4V42a1,1,0,0,0-2,0v6h-20V42a1,1,0,0,0-2,0v6h-4a1,1,0,0,1-1-1V40.855a12,12,0,0,1,5.22-9.9L15.207,27.2a11.88,11.88,0,0,0,3.216,1.387L15.77,39.769a1,1,0,0,0,.265.938l4.758,4.757a1,1,0,0,0,1.414,0l4.758-4.757a1,1,0,0,0,.265-.938L24.577,28.585A11.88,11.88,0,0,0,27.793,27.2l5.485,3.755a12,12,0,0,1,5.222,9.9Z" fill="#0a2740"/>
  </g>
</svg>
