<?xml version="1.0" encoding="utf-8"?>
<!-- Generator: Adobe Illustrator 24.3.0, SVG Export Plug-In . SVG Version: 6.00 Build 0)  -->
<svg version="1.1" id="Layer_1" xmlns="http://www.w3.org/2000/svg" xmlns:xlink="http://www.w3.org/1999/xlink" x="0px" y="0px"
	 viewBox="0 0 178 26.1" style="enable-background:new 0 0 178 26.1;" xml:space="preserve">
<style type="text/css">
	.st0{fill:#0A2740;}
	.st1{fill:#8686A3;}
</style>
<g id="Group_4" transform="translate(-1692.513 -915.524)">
	<g id="Group_1" transform="translate(1780.502 936.081)">
		<path id="Path_26" class="st0" d="M0,5.4V1.3h2.2c0.5,0,0.9,0.1,1.2,0.4C3.7,2,3.8,2.3,3.8,2.6c0,0.5-0.3,1-0.8,1.1l1,1.6h-1
			L2.1,3.9H0.9v1.5H0z M0.9,2.1v1.1h1.5c0.3,0,0.6-0.2,0.6-0.5c0,0,0,0,0,0c0-0.1,0-0.3-0.1-0.4C2.6,2.1,2.5,2,2.3,2.1L0.9,2.1z"/>
		<path id="Path_27" class="st0" d="M7.9,3.6H6.4v1H9v0.8H5.5V1.3h3.4v0.8H6.4v0.8h1.5V3.6z"/>
		<path id="Path_28" class="st0" d="M11.8,1.3h0.8l1.9,4.1h-1l-0.4-0.9h-1.9l-0.4,0.9H10L11.8,1.3z M11.6,3.8h1.3l-0.6-1.4h0
			L11.6,3.8z"/>
		<path id="Path_29" class="st0" d="M16.7,1.3v3.3h2.4v0.8h-3.3V1.3L16.7,1.3z"/>
		<path id="Path_30" class="st0" d="M20.5,5.4V1.3h0.9v4.1H20.5z"/>
		<path id="Path_31" class="st0" d="M22.8,1.3h3.8v0.8h-1.5v3.3h-0.9V2.1h-1.5V1.3z"/>
		<path id="Path_32" class="st0" d="M31.8,1.3v4.1H31L29,2.9h0v2.5H28V1.3h0.8l2.1,2.5h0V1.3L31.8,1.3z"/>
		<path id="Path_33" class="st0" d="M35,1.3h0.8l1.9,4.1h-1l-0.4-0.9h-1.9l-0.4,0.9h-0.9L35,1.3z M34.7,3.8H36l-0.6-1.4h0L34.7,3.8z
			 M35.5,0h0.9l-0.8,0.9h-0.7L35.5,0z"/>
		<path id="Path_34" class="st0" d="M41.9,3.1l1.9-1.8h1.1l-1.7,1.6l2,2.5h-1.1l-1.5-1.9l-0.7,0.6v1.3H41V1.3h0.9L41.9,3.1z"/>
		<path id="Path_35" class="st0" d="M47.8,1.3h0.8l1.9,4.1h-1l-0.4-0.9h-1.9l-0.4,0.9h-0.9L47.8,1.3z M47.5,3.8h1.3l-0.6-1.4h0
			L47.5,3.8z"/>
		<path id="Path_36" class="st0" d="M55.5,1.3v4.1h-0.8l-2.1-2.5h0v2.5h-0.9V1.3h0.8l2.1,2.5h0V1.3L55.5,1.3z"/>
		<path id="Path_37" class="st0" d="M61.3,4.7c-0.6,0.5-1.3,0.8-2.1,0.8c-1.2,0-2.2-0.9-2.2-2.1c0-1.2,0.9-2.2,2.1-2.2
			c0,0,0.1,0,0.1,0c0.7,0,1.4,0.3,2,0.7l-0.6,0.6C60.3,2.2,59.8,2,59.3,2c-0.8,0-1.4,0.6-1.4,1.4c0,0.8,0.6,1.4,1.4,1.4l0,0
			c0.5,0,1.1-0.3,1.4-0.6L61.3,4.7z"/>
		<path id="Path_38" class="st0" d="M65.2,3.6h-1.5v1h2.6v0.8h-3.5V1.3h3.4v0.8h-2.5v0.8h1.5L65.2,3.6z"/>
		<path id="Path_39" class="st0" d="M68.7,1.3v3.3h2.4v0.8h-3.3V1.3L68.7,1.3z"/>
		<path id="Path_40" class="st0" d="M73.8,1.3h0.8l1.9,4.1h-1l-0.4-0.9h-1.9l-0.4,0.9h-0.9L73.8,1.3z M73.5,3.8h1.3l-0.6-1.4h0
			L73.5,3.8z M74.3,0h0.9l-0.8,0.9h-0.7L74.3,0z"/>
		<path id="Path_41" class="st0" d="M77.8,5.4V1.3H80c0.5,0,0.9,0.1,1.2,0.4c0.2,0.2,0.3,0.5,0.3,0.8c0,0.5-0.3,1-0.8,1.1l1,1.6h-1
			l-0.8-1.5h-1.2v1.5H77.8z M78.7,2.1v1.1h1.5c0.3,0,0.6-0.2,0.6-0.5c0,0,0,0,0,0c0-0.1-0.1-0.3-0.1-0.4c-0.1-0.1-0.3-0.2-0.5-0.2
			L78.7,2.1z"/>
		<path id="Path_42" class="st0" d="M83.3,5.4V1.3h0.9v4.1H83.3z"/>
		<path id="Path_43" class="st0" d="M87.4,1.3h0.8L90,5.4h-1l-0.4-0.9h-1.9l-0.4,0.9h-0.9L87.4,1.3z M87.1,3.8h1.3l-0.6-1.4h0
			L87.1,3.8z"/>
	</g>
	<g id="Group_2" transform="translate(1692.513 915.524)">
		<path id="Path_44" class="st1" d="M65.6,12.3c-0.9-0.8-2-1.6-3-2.2C61,3.1,54-1.3,47,0.3c-2.4,0.5-4.5,1.7-6.2,3.5L24.4,20.2
			c-3.9,3.9-10.3,3.9-14.2,0l-0.1-0.1c-0.7-0.7-1.3-1.6-1.8-2.5c1.9,0.7,4,1.1,6,1.1c0.2,0,0.4,0,0.6,0c6.3,0,12.3-3,16.1-8
			c0.3-0.3,0.5-0.7,0.7-1L32,9.3l-5.5-5.5c-5.1-5.1-13.3-5.1-18.3,0C5.9,6,4.5,9.1,4.4,12.2c-1.2-1-2.3-2.1-3.3-3.4L0.4,7.9L0.1,9.1
			c-0.4,1.7,0.2,3.5,1.5,4.6c0.9,0.8,2,1.6,3,2.2c0.5,2.3,1.7,4.5,3.4,6.2l0.1,0.1c5.1,5,13.2,5,18.3,0L42.8,5.8
			c4-3.9,10.4-3.9,14.3,0c0.7,0.7,1.3,1.6,1.8,2.5c-1.9-0.7-4-1.1-6-1.1c-0.2,0-0.4,0-0.6,0c-6.3,0-12.2,2.9-16,7.9
			c-0.3,0.4-0.5,0.7-0.8,1.1l-0.2,0.4l5.5,5.5c2.4,2.4,5.7,3.8,9.2,3.8c0.1,0,0.2,0,0.3,0c6.8-0.1,12.3-5.5,12.7-12.2
			c1.2,1,2.4,2.1,3.3,3.4l0.7,0.9l0.3-1.2C67.5,15.2,66.9,13.4,65.6,12.3z M7.3,14.1C6.6,8.5,10.6,3.5,16.2,2.9
			c3.1-0.3,6.1,0.7,8.3,2.9l3.8,3.8c-0.9,1-1.8,2-2.9,2.8c-3,2.3-6.6,3.5-10.4,3.5c-0.9,0-1.7-0.1-2.6-0.2
			C10.6,15.4,8.9,14.9,7.3,14.1L7.3,14.1z M52.3,10.1c0.9,0,1.7,0.1,2.6,0.2c1.8,0.3,3.5,0.8,5.1,1.6c0,0.4,0.1,0.7,0.1,1.1
			c0,5.6-4.5,10.1-10.1,10.1c-2.7,0-5.3-1.1-7.2-3L39,16.3c0.9-1,1.8-2,2.9-2.8C44.9,11.3,48.6,10.1,52.3,10.1z"/>
	</g>
	<g id="Group_3" transform="translate(1780.502 915.524)">
		<path id="Path_45" class="st0" d="M12.4,3.6c-1.6-1.3-3.6-1.9-5.6-1.9c-1.9,0-3.9,0.7-3.9,2.6c0,1.9,2.5,2,5,2.2
			c2.6,0.2,6.9,0.4,6.9,4.5c0,3.5-3.1,4.9-6.8,4.9C5,16,2.1,14.9,0,12.8l1.2-1.4C3,13.2,5.5,14.2,8,14.2c2.6,0,4.7-0.9,4.7-3
			c0-2.3-2.3-2.6-4.9-2.8c-3.3-0.2-7-0.4-7-3.9c0-3.5,3.3-4.5,6-4.5c2.4,0,4.8,0.7,6.7,2.2L12.4,3.6z"/>
		<path id="Path_46" class="st0" d="M22.5,15.5V0.4h2v15.1L22.5,15.5z"/>
		<path id="Path_47" class="st0" d="M41.9,8.5h-6.1v5.3h10.7v1.8H33.8V0.4H46v1.8H35.8v4.5h6.1L41.9,8.5z"/>
		<path id="Path_48" class="st0" d="M54.1,15.5V0.4h8.3c1.6-0.1,3.1,0.4,4.2,1.5c0.8,0.8,1.2,1.9,1.2,3c0,2.1-1.5,3.8-3.5,4.2
			l3.7,6.4h-2.3l-3.5-6.2h-6.2v6.2L54.1,15.5z M56.1,2.2v5.4H63c1.5,0.1,2.8-1.1,2.9-2.6c0,0,0,0,0-0.1c0-0.7-0.3-1.3-0.7-1.8
			c-0.7-0.7-1.7-1-2.7-0.9L56.1,2.2z"/>
		<path id="Path_49" class="st0" d="M74.1,15.5l7-15.1H83l7,15.1h-2.2L85.7,11h-7.6l-2,4.5H74.1z M78.9,9.4H85l-3-6.6h-0.1L78.9,9.4
			z"/>
	</g>
	<rect id="Rectangle_25" x="1769.8" y="915.5" class="st0" width="0.7" height="26"/>
</g>
</svg>
