<svg xmlns="http://www.w3.org/2000/svg" width="178" height="26.052" viewBox="0 0 178 26.052">
  <g id="Group_4" data-name="Group 4" transform="translate(-1692.513 -915.524)">
    <g id="Group_1" data-name="Group 1" transform="translate(1780.502 936.081)">
      <path id="Path_26" data-name="Path 26" d="M2124.726,1027v-4.059h2.25a1.582,1.582,0,0,1,1.218.441,1.212,1.212,0,0,1,.336.839,1.245,1.245,0,0,1-.82,1.144l.951,1.635h-1.019l-.821-1.492h-1.206V1027Zm.889-3.307v1.063h1.455a.542.542,0,0,0,.566-.534.494.494,0,0,0-.143-.354.607.607,0,0,0-.485-.174Z" transform="translate(-2124.726 -1021.631)" fill="#fff"/>
      <path id="Path_27" data-name="Path 27" d="M2154,1025.268h-1.5v.969h2.636V1027h-3.524v-4.059h3.382v.771H2152.5v.79h1.5Z" transform="translate(-2146.136 -1021.631)" fill="#fff"/>
      <path id="Path_28" data-name="Path 28" d="M2175.491,1022.943h.764l1.883,4.059h-.976l-.373-.858h-1.877l-.366.858h-.939Zm-.274,2.5h1.269l-.616-1.436h-.037Z" transform="translate(-2163.656 -1021.631)" fill="#fff"/>
      <path id="Path_29" data-name="Path 29" d="M2203.336,1022.943v3.294h2.387V1027h-3.276v-4.059Z" transform="translate(-2186.625 -1021.631)" fill="#fff"/>
      <path id="Path_30" data-name="Path 30" d="M2225.328,1027v-4.059h.889V1027Z" transform="translate(-2204.848 -1021.631)" fill="#fff"/>
      <path id="Path_31" data-name="Path 31" d="M2236.692,1022.943h3.83v.771h-1.467V1027h-.889v-3.289h-1.474Z" transform="translate(-2213.898 -1021.631)" fill="#fff"/>
      <path id="Path_32" data-name="Path 32" d="M2266.245,1022.943V1027h-.771l-2.064-2.511h-.007V1027h-.895v-4.059h.765l2.069,2.518h.006v-2.518Z" transform="translate(-2234.459 -1021.631)" fill="#fff"/>
      <path id="Path_33" data-name="Path 33" d="M2289.323,1017.812h.764l1.883,4.059h-.976l-.373-.858h-1.877l-.367.858h-.938Zm-.274,2.5h1.268l-.615-1.436h-.038Zm.733-3.81h.889l-.771.858h-.74Z" transform="translate(-2254.314 -1016.501)" fill="#fff"/>
      <path id="Path_34" data-name="Path 34" d="M2327.1,1024.708l1.859-1.765h1.119l-1.69,1.585,2,2.474h-1.125l-1.5-1.89-.653.615V1027h-.9v-4.059h.9Z" transform="translate(-2285.189 -1021.631)" fill="#fff"/>
      <path id="Path_35" data-name="Path 35" d="M2351.95,1022.943h.764L2354.6,1027h-.976l-.373-.858h-1.877L2351,1027h-.939Zm-.274,2.5h1.268l-.615-1.436h-.037Z" transform="translate(-2304.192 -1021.631)" fill="#fff"/>
      <path id="Path_36" data-name="Path 36" d="M2382.64,1022.943V1027h-.771l-2.063-2.511h-.007V1027h-.9v-4.059h.765l2.07,2.518h.006v-2.518Z" transform="translate(-2327.159 -1021.631)" fill="#fff"/>
      <path id="Path_37" data-name="Path 37" d="M2409.235,1025.809a3.026,3.026,0,0,1-2.063.833,2.155,2.155,0,1,1-.031-4.308,3.111,3.111,0,0,1,1.964.708l-.559.584a2.164,2.164,0,0,0-1.33-.522,1.386,1.386,0,0,0,.031,2.772,2.09,2.09,0,0,0,1.424-.646Z" transform="translate(-2347.89 -1021.147)" fill="#fff"/>
      <path id="Path_38" data-name="Path 38" d="M2435.458,1025.268h-1.5v.969h2.636V1027h-3.524v-4.059h3.381v.771h-2.493v.79h1.5Z" transform="translate(-2370.299 -1021.631)" fill="#fff"/>
      <path id="Path_39" data-name="Path 39" d="M2458.735,1022.943v3.294h2.387V1027h-3.276v-4.059Z" transform="translate(-2390.03 -1021.631)" fill="#fff"/>
      <path id="Path_40" data-name="Path 40" d="M2479.833,1017.812h.764l1.883,4.059h-.976l-.373-.858h-1.877l-.366.858h-.939Zm-.274,2.5h1.268l-.615-1.436h-.037Zm.733-3.81h.889l-.771.858h-.74Z" transform="translate(-2406.041 -1016.501)" fill="#fff"/>
      <path id="Path_41" data-name="Path 41" d="M2506.787,1027v-4.059h2.25a1.583,1.583,0,0,1,1.219.441,1.212,1.212,0,0,1,.335.839,1.245,1.245,0,0,1-.82,1.144l.951,1.635h-1.02l-.82-1.492h-1.206V1027Zm.889-3.307v1.063h1.455a.542.542,0,0,0,.566-.534.5.5,0,0,0-.143-.354.607.607,0,0,0-.485-.174Z" transform="translate(-2429.008 -1021.631)" fill="#fff"/>
      <path id="Path_42" data-name="Path 42" d="M2533.673,1027v-4.059h.888V1027Z" transform="translate(-2450.42 -1021.631)" fill="#fff"/>
      <path id="Path_43" data-name="Path 43" d="M2546.494,1022.943h.764l1.884,4.059h-.976l-.373-.858h-1.877l-.366.858h-.939Zm-.274,2.5h1.269l-.615-1.436h-.038Z" transform="translate(-2459.131 -1021.631)" fill="#fff"/>
    </g>
    <g id="Group_2" data-name="Group 2" transform="translate(1692.513 915.524)">
      <path id="Path_44" data-name="Path 44" d="M1758.15,927.791a20.274,20.274,0,0,0-3.038-2.228,12.979,12.979,0,0,0-21.818-6.237l-16.355,16.355a10.135,10.135,0,0,1-14.234,0l-.065-.065a9.936,9.936,0,0,1-1.795-2.458,19.915,19.915,0,0,0,6.04,1.111q.29.011.58.011a20.089,20.089,0,0,0,16.068-8.032c.251-.337.5-.684.734-1.039l.244-.369-5.517-5.517a12.97,12.97,0,0,0-22.127,8.441,17.191,17.191,0,0,1-3.278-3.371l-.706-.921-.258,1.146a4.763,4.763,0,0,0,1.515,4.6,20.352,20.352,0,0,0,3.045,2.228,12.918,12.918,0,0,0,3.425,6.2l.072.068a13.012,13.012,0,0,0,18.275,0l16.359-16.359a10.128,10.128,0,0,1,16.129,2.49,19.878,19.878,0,0,0-6.044-1.11q-.29-.011-.58-.011a20.072,20.072,0,0,0-15.986,7.925c-.272.355-.548.742-.82,1.147l-.24.369,5.517,5.517a12.871,12.871,0,0,0,9.175,3.8c.082,0,.168,0,.254,0a12.979,12.979,0,0,0,12.7-12.231,17.192,17.192,0,0,1,3.285,3.382l.706.928.258-1.154A4.784,4.784,0,0,0,1758.15,927.791Zm-58.373,1.813a10.1,10.1,0,0,1,17.19-8.251l3.79,3.791a17.422,17.422,0,0,1-2.923,2.8,17.083,17.083,0,0,1-10.368,3.475,17.363,17.363,0,0,1-2.6-.2A17.063,17.063,0,0,1,1699.777,929.6Zm45.045-4.016a17.3,17.3,0,0,1,2.6.2,17.014,17.014,0,0,1,5.1,1.619,10.2,10.2,0,0,1,.061,1.1,10.111,10.111,0,0,1-17.261,7.151l-3.791-3.79a17.311,17.311,0,0,1,2.927-2.8A17.077,17.077,0,0,1,1744.822,925.588Z" transform="translate(-1692.513 -915.524)" fill="#8686a3"/>
    </g>
    <g id="Group_3" data-name="Group 3" transform="translate(1780.502 915.524)">
      <path id="Path_45" data-name="Path 45" d="M2137.119,919.115a8.493,8.493,0,0,0-5.605-1.876c-1.946,0-3.938.695-3.938,2.595,0,1.946,2.5,2.038,4.958,2.177,2.641.185,6.9.44,6.9,4.494,0,3.521-3.127,4.934-6.764,4.934a11.244,11.244,0,0,1-7.945-3.1l1.228-1.39a9.561,9.561,0,0,0,6.764,2.779c2.571,0,4.7-.926,4.7-2.965,0-2.27-2.317-2.617-4.888-2.8-3.267-.209-6.973-.44-6.973-3.938,0-3.451,3.313-4.494,6.023-4.494a11.061,11.061,0,0,1,6.741,2.2Z" transform="translate(-2124.726 -915.524)" fill="#fff"/>
      <path id="Path_46" data-name="Path 46" d="M2235.2,932.585V917.459h2.015v15.126Z" transform="translate(-2212.713 -917.065)" fill="#fff"/>
      <path id="Path_47" data-name="Path 47" d="M2298.972,925.52h-6.116V930.8h10.679v1.784h-12.694V917.459H2303v1.784h-10.146v4.494h6.116Z" transform="translate(-2257.024 -917.065)" fill="#fff"/>
      <path id="Path_48" data-name="Path 48" d="M2390.623,932.585V917.459h8.339a5.5,5.5,0,0,1,4.239,1.529,4.245,4.245,0,0,1,1.158,2.965,4.39,4.39,0,0,1-3.521,4.216l3.729,6.417h-2.293l-3.475-6.162h-6.162v6.162Zm2.015-13.343v5.4h6.834a2.774,2.774,0,0,0,2.9-2.71,2.567,2.567,0,0,0-.718-1.76,3.519,3.519,0,0,0-2.687-.927Z" transform="translate(-2336.492 -917.065)" fill="#fff"/>
      <path id="Path_49" data-name="Path 49" d="M2488.582,932.585l7.019-15.126h1.9l7.019,15.126h-2.2l-2.062-4.54h-7.552l-2.039,4.54Zm4.842-6.162h6.115l-2.988-6.6h-.139Z" transform="translate(-2414.509 -917.065)" fill="#fff"/>
    </g>
    <rect id="Rectangle_25" data-name="Rectangle 25" width="0.689" height="25.957" transform="translate(1769.798 915.524)" fill="#fff"/>
  </g>
</svg>
