<svg xmlns="http://www.w3.org/2000/svg" width="24" height="23.953" viewBox="0 0 24 23.953">
  <path id="review" d="M3.885,15.06a.937.937,0,0,0,1.3-.258,8.154,8.154,0,0,1,13.537-.017.937.937,0,0,0,1.556-1.047A10.006,10.006,0,0,0,15.346,9.9a5.3,5.3,0,1,0-6.717-.021,10,10,0,0,0-5,3.881A.938.938,0,0,0,3.885,15.06ZM12,2.375A3.422,3.422,0,1,1,8.578,5.8,3.426,3.426,0,0,1,12,2.375ZM15.739,17.1l-1.4,1.008a.587.587,0,0,0-.216.659l.563,1.631a.592.592,0,0,1,.03.211.618.618,0,0,1-.972.447l-1.4-1.009a.6.6,0,0,0-.7,0l-1.4,1.009a.618.618,0,0,1-.972-.447.6.6,0,0,1,.03-.211l.562-1.631a.587.587,0,0,0-.216-.659L8.261,17.1a.632.632,0,0,1,.349-1.131h1.728a.54.54,0,0,0,.564-.342l.534-1.642a.595.595,0,0,1,1.129,0l.534,1.642a.54.54,0,0,0,.564.342H15.39A.632.632,0,0,1,15.739,17.1Zm8.016,3.281-1.4,1.008a.587.587,0,0,0-.216.659l.563,1.631a.592.592,0,0,1,.03.211.618.618,0,0,1-.972.447l-1.4-1.009a.6.6,0,0,0-.7,0l-1.4,1.009a.618.618,0,0,1-.972-.447.6.6,0,0,1,.03-.211l.562-1.631a.587.587,0,0,0-.216-.659l-1.4-1.008a.632.632,0,0,1,.349-1.131h1.728a.54.54,0,0,0,.564-.342l.534-1.642a.595.595,0,0,1,1.129,0l.534,1.642a.54.54,0,0,0,.564.342h1.728A.632.632,0,0,1,23.754,20.381Zm-16.031,0-1.4,1.008a.587.587,0,0,0-.216.659l.563,1.631a.592.592,0,0,1,.03.211.618.618,0,0,1-.972.447l-1.4-1.009a.6.6,0,0,0-.7,0l-1.4,1.009a.618.618,0,0,1-.972-.447.6.6,0,0,1,.03-.211l.562-1.631a.587.587,0,0,0-.216-.659l-1.4-1.008A.632.632,0,0,1,.594,19.25H2.322a.54.54,0,0,0,.564-.342l.534-1.642a.595.595,0,0,1,1.129,0l.534,1.642a.54.54,0,0,0,.564.342H7.374A.632.632,0,0,1,7.723,20.381Z" transform="translate(0 -0.5)" fill="#8686a3"/>
</svg>
